<?xml version="1.0" encoding="UTF-8"?><svg id="a" xmlns="http://www.w3.org/2000/svg" viewBox="0 0 489.14 91.9"><path d="M397.13,61.18c-.8,4.48-1.57,8.79-2.35,13.15-2.31,0-4.58.23-6.79-.06-2.82-.37-4.22-2.68-3.71-5.63,1.07-6.24,2.17-12.47,3.26-18.71,1.01-5.78,2.06-11.55,3.02-17.34.19-1.15.57-1.59,1.83-1.58,8.46.06,16.92-.01,25.38.08,1.31.01,2.78.4,3.89,1.08,1.73,1.07,1.88,2.98,1.55,4.85-1.05,6.05-2.11,12.11-3.22,18.15-.67,3.7-3.44,6-7.2,6.01-5.17.02-10.35,0-15.67,0ZM397.99,56.3c2.08,0,4.02.11,5.94-.03,2.81-.2,4.66-1.98,5.2-4.75.18-.91.32-1.82.47-2.73.47-2.73.96-5.47,1.4-8.21.35-2.18-.47-3.88-2.22-4.4-3.32-.99-7.29.07-8.16,4.74-.41,2.18-.74,4.38-1.11,6.56-.5,2.91-1,5.81-1.52,8.81Z"/><path d="M84.18,14.79c1.54,0,2.93,0,4.31,0,8.42,0,16.83,0,25.25.01,1.1,0,2.22.07,3.31.25,4.49.75,7.14,3.77,7.21,8.3.07,4.3.06,8.6,0,12.9-.08,4.91-3.51,8.29-8.85,8.36-10.13.13-20.26.05-30.38.04-.27,0-.53-.09-.84-.15V14.79ZM93.58,37.16c6.14,0,12.14,0,18.14,0,.23,0,.46-.05.69-.09,1.8-.28,2.48-1.04,2.5-2.88.02-2.87.02-5.73,0-8.6,0-2.3-.81-3.24-3.16-3.26-5.96-.06-11.92,0-17.88,0-.08,0-.15.09-.29.17v14.65Z"/><path d="M470.31,61.18c-4.16,0-8.32,0-12.48,0-4,0-5.87-2.22-5.2-6.14,1.31-7.6,2.66-15.2,3.95-22.81.15-.9.46-1.21,1.4-1.21,8.65.04,17.29.01,25.94.03,3.81,0,5.74,2.23,5.1,5.99-1.31,7.7-2.72,15.38-4.02,23.08-.16.94-.57,1.07-1.37,1.07-4.44-.03-8.88-.01-13.32-.01h0ZM467.45,35.91c-.23,1.32-.44,2.59-.67,3.85-.68,3.82-1.38,7.63-2.06,11.45-.57,3.21.84,4.98,4.08,5.14.55.03,1.11.03,1.66,0,1.19-.04,2.74.34,3.47-.27.72-.6.66-2.19.87-3.37.74-4.09,1.49-8.18,2.14-12.28.4-2.53-.93-4.35-3.3-4.51-2.02-.13-4.05-.03-6.19-.03Z"/><path d="M50.03,37.24v7.33h-9.28V14.79c.58,0,1.08,0,1.58,0,9.16,0,18.32,0,27.48,0,7.03,0,9.92,2.75,10.01,9.77.03,2.38-.18,4.81-.67,7.14-.66,3.14-2.91,4.82-6.04,5.3-1,.15-2.02.22-3.04.22-6.11.02-12.21.01-18.32.01h-1.72ZM50.1,29.74c.6,0,1.09,0,1.58,0,4.76,0,9.51,0,14.27,0,.6,0,1.2-.03,1.79-.14,1.77-.33,2.56-1.22,2.74-2.97.29-2.82-1-4.29-3.86-4.31-5.17-.03-10.34-.01-15.51,0-.31,0-.62.06-1.01.09v7.34Z"/><path d="M320.7,35.89c.29-1.68.54-3.17.81-4.77.44-.03.84-.07,1.25-.07,8.05,0,16.09,0,24.14,0,4.2,0,6.04,2.1,5.34,6.26-1.28,7.61-2.64,15.21-3.98,22.81-.06.32-.15.62-.27,1.07-.45,0-.9,0-1.36,0-8.28,0-16.56,0-24.83,0-4.11,0-5.95-2.13-5.32-6.18.32-2.06.68-4.1,1.06-6.15.69-3.73,3.37-6.03,7.16-6.06,4.62-.04,9.25-.04,13.87.01.98.01,1.48-.24,1.48-1.27,0-.36.13-.73.18-1.09.34-2.73-1.15-4.51-3.9-4.54-4.67-.04-9.34-.01-14.01-.01-.49,0-.99,0-1.63,0ZM338.97,47.72c-2.07,0-4.01-.17-5.91.04-2.47.27-3.92,1.9-4.54,4.26-.57,2.15.32,3.81,2.52,4.09,2.08.26,4.21.06,6.41.06.5-2.76,1-5.56,1.52-8.45Z"/><path d="M311.08,61.11h-11.46c.48-2.77.94-5.44,1.41-8.11.72-4.14,1.47-8.28,2.17-12.43.47-2.8-1.04-4.6-3.85-4.69-3.78-.12-5.9,1.6-6.55,5.31-1.1,6.28-2.21,12.56-3.36,18.84-.07.41-.47,1.08-.73,1.09-3.59.07-7.19.05-10.93.05.62-3.49,1.2-6.81,1.79-10.12.81-4.55,1.62-9.1,2.43-13.65.75-4.19,3.35-6.35,7.6-6.35,6.66,0,13.32,0,19.98,0,.32,0,.65,0,.97.01,3.5.14,5.33,2.17,4.81,5.61-.69,4.57-1.56,9.11-2.37,13.66-.62,3.55-1.26,7.1-1.91,10.79Z"/><path d="M158.36,14.87h9.28c.02.49.06.97.06,1.46,0,6.24-.14,12.49.04,18.73.18,6.48-3.92,9.52-9.36,9.59-6.84.08-13.69.07-20.54-.01-3.38-.04-6.48-1.01-8.19-4.24-.65-1.22-1.07-2.71-1.09-4.09-.11-6.94-.06-13.88-.06-20.81,0-.18.05-.36.08-.62h9.3c0,.52,0,1.01,0,1.51,0,5.78,0,11.56,0,17.35,0,2.51.62,3.34,3.13,3.39,4.76.11,9.53.1,14.29-.02,2.42-.06,3.05-.89,3.06-3.33.02-5.74,0-11.47,0-17.21,0-.54,0-1.09,0-1.71Z"/><path d="M181.78,14.89v12c3.49,0,6.85.03,10.21-.04.35,0,.77-.58,1.01-.97,1.97-3.35,3.92-6.71,5.82-10.09.41-.74.88-1.03,1.74-1.01,2.96.05,5.92.02,9.05.02-.18.42-.29.75-.46,1.05-2.37,4.24-4.72,8.48-7.14,12.69-.5.87-.56,1.47.01,2.36,2.68,4.16,5.27,8.37,7.89,12.57.19.31.36.63.62,1.1-.45.05-.78.12-1.12.12-2.78,0-5.55-.03-8.33.03-.91.02-1.41-.3-1.88-1.06-1.66-2.72-3.42-5.38-5.09-8.1-.49-.79-1.02-1.15-1.99-1.13-3.37.06-6.75.02-10.32.02v10.16h-9.34V14.89h9.32Z"/><path d="M385.11,31.03c-.26,1.57-.43,2.94-.77,4.26-.07.28-.75.56-1.15.57-3.14.05-6.29-.08-9.43.08-1.32.07-2.72.51-3.9,1.14-1.44.76-2.03,2.71-1.6,4.1.4,1.29,1.62,2.15,3.36,2.21,1.99.07,3.98.01,5.96.04,3.86.05,5.75,2.32,5.13,6.14-.32,1.96-.68,3.92-1.02,5.87-.56,3.2-2.7,5.55-5.93,5.63-7.34.18-14.68.06-22.22.06.26-1.49.44-2.89.79-4.25.07-.26.79-.49,1.22-.49,3-.04,6.02.12,9.01-.07,1.5-.09,3.11-.52,4.42-1.25,1.62-.89,2.16-2.93,1.65-4.48-.48-1.43-1.76-2.23-3.76-2.26-1.85-.03-3.7.02-5.55-.02-3.84-.07-5.77-2.42-5.1-6.19.33-1.87.67-3.73,1.01-5.59.54-3.02,2.65-5.03,5.69-5.39.55-.07,1.11-.09,1.66-.09,6.2-.01,12.39-.01,18.59-.02.58,0,1.17,0,1.92,0Z"/><path d="M.15,14.87h9.71c0,.55,0,1.09,0,1.63,0,5.59,0,11.19,0,16.78,0,3.16.72,3.9,3.93,3.91,6.93.03,13.87,0,20.8,0,.54,0,1.09,0,1.72,0v7.47c-.52,0-1.01,0-1.5,0-8.28,0-16.55,0-24.83,0-.92,0-1.85-.06-2.76-.2-4.25-.67-7.08-3.63-7.16-7.91C-.06,29.48.03,22.4.03,15.33c0-.13.07-.26.12-.46Z"/><path d="M452.52,31.2c-.23,1.4-.43,2.81-.74,4.19-.05.22-.62.46-.96.47-1.94.04-3.88.02-5.83.02-3.5,0-5.55,1.7-6.16,5.12-1.12,6.33-2.23,12.65-3.35,18.98-.06.36-.17.71-.28,1.15h-11.38c.19-1.15.37-2.22.56-3.29,1.23-6.96,2.44-13.93,3.69-20.89.61-3.41,3.2-5.81,6.58-5.87,5.78-.11,11.56-.05,17.34-.05.13,0,.26.08.52.17Z"/><path d="M266.25,31.1h11.35c-.5,2.93-.99,5.79-1.49,8.64-1.17,6.69-2.39,13.38-3.51,20.08-.19,1.12-.61,1.45-1.7,1.38-1.52-.09-3.05.02-4.58-.05-2.99-.14-4.96-2.35-4.48-5.3,1.33-8.07,2.79-16.13,4.2-24.19.03-.18.12-.34.2-.57Z"/><path d="M237.78,91.9h-3.11V0h3.11v91.9Z"/><path d="M66.83,54.08c-2.94,7.13-5.89,14.25-8.79,21.4-.38.94-.85,1.3-1.9,1.34-1.21.04-1.76-.37-2.22-1.49-2.85-6.97-5.77-13.91-8.92-20.84v22.19h-2.86v-25.33c1.44,0,2.87-.07,4.28.05.38.03.87.6,1.04,1.03,2.62,6.27,5.19,12.56,7.77,18.84.21.5.42,1.01.74,1.79.74-1.77,1.37-3.29,2-4.81,2.15-5.26,4.32-10.52,6.44-15.79.32-.79.69-1.19,1.6-1.12,1.24.09,2.49.02,3.83.02v25.33h-2.72v-22.58c-.1,0-.21-.01-.31-.02Z"/><path d="M112.64,51.43h2.81v25.33c-1.41,0-2.83.08-4.23-.05-.41-.04-.86-.61-1.13-1.04-4.17-6.76-8.32-13.54-12.48-20.31-.23-.38-.49-.74-.93-1.41v22.71h-2.78v-25.3c1.4,0,2.82-.07,4.22.05.36.03.76.6,1,1,4.19,6.81,8.35,13.63,12.52,20.45.23.38.49.75.98,1.5v-22.92Z"/><path d="M166.32,51.55c4.95,0,9.8-.19,14.63.07,2.95.16,4.38,1.84,4.69,4.76.18,1.68.11,3.42-.03,5.11-.16,2.01-1.38,3.24-3.84,3.77,3.29.94,3.77,3.11,3.7,5.64-.05,1.89-.01,3.78-.01,5.77h-2.86c0-1.59.02-3.2,0-4.8-.01-.78-.03-1.58-.17-2.34-.33-1.87-1.28-2.89-3.12-2.96-3.32-.12-6.64-.03-10.15-.03v10.16h-2.83v-25.14ZM169.17,64.06c1.43,0,2.71.02,4,0,2.07-.03,4.16.01,6.22-.15,2.46-.19,3.43-1.24,3.6-3.71.07-1.01.02-2.03-.07-3.04-.21-2.31-.96-3.16-3.3-3.25-3.36-.14-6.73-.07-10.09-.07-.12,0-.23.12-.36.2v10.03Z"/><path d="M141.06,63.61c.27-2.8.38-5.2.77-7.56.37-2.26,1.87-3.69,4.08-4.24,4.29-1.06,8.61-1,12.91,0,2.23.52,3.4,2.16,3.54,4.29.27,4.32.37,8.66.4,12.99,0,1.41-.38,2.83-.7,4.22-.33,1.47-1.3,2.46-2.75,2.85-4.79,1.28-9.59,1.29-14.37-.02-1.63-.45-2.59-1.67-2.81-3.28-.44-3.19-.74-6.41-1.06-9.25ZM160.35,64.28c-.15-2.76-.22-5.02-.43-7.27-.17-1.78-1.23-2.99-3.03-3.06-3.21-.13-6.44-.18-9.65,0-1.97.12-2.47.76-2.73,2.71-.66,5.01-.67,10.03.03,15.05.19,1.39.93,2.19,2.26,2.43,3.58.64,7.16.66,10.74-.03,1.21-.23,2.02-.9,2.14-2.2.24-2.71.47-5.42.66-7.64Z"/><path d="M19.47,51.49c-3.86,4.07-7.6,8.03-11.48,12.12,4.24,4.3,8.47,8.57,12.87,13.03-2.24.23-3.96.32-5.54-1.5-2.69-3.1-5.75-5.88-8.54-8.9-1.07-1.15-2.15-1.63-3.8-1.16v11.59H.14v-25.23h2.79v10.87c1.53.3,2.6.16,3.61-1.01,2.37-2.71,5.05-5.16,7.32-7.95,1.53-1.88,3.24-2.33,5.61-1.87Z"/><path d="M210.51,76.56c-.17.11-.21.16-.25.16q-2.62.2-3.5-2.25-1.1-3.06-4.37-3.06c-2.73,0-5.46.05-8.19-.02-1.02-.03-1.64.18-1.88,1.27-.19.85-.65,1.64-.86,2.48-.31,1.27-.99,1.88-2.33,1.63-.35-.06-.73,0-1.33,0,.85-2.36,1.63-4.55,2.43-6.74,2.1-5.73,4.24-11.44,6.28-17.19.4-1.14.9-1.58,2.15-1.53,2.48.12,2.49.03,3.36,2.35,2.74,7.31,5.47,14.63,8.2,21.95.11.3.19.61.3.95ZM204.77,69.18c-1.88-5.16-3.67-10.09-5.61-15.4-1.92,5.37-3.7,10.33-5.51,15.4h11.12Z"/><path d="M120.43,51.54c4.78,0,9.5-.18,14.19.07,2.89.15,4.12,1.48,4.5,4.39.27,2.12.18,4.33-.02,6.47-.22,2.3-1.74,3.69-4,3.95-2.29.26-4.61.27-6.91.35-1.56.05-3.13,0-4.9,0v9.93h-2.85v-25.16ZM123.34,53.95v10.07c3.59,0,7.09.12,10.57-.05,1.74-.09,2.47-.99,2.61-2.7.13-1.6.06-3.23-.05-4.83-.1-1.49-1.01-2.43-2.5-2.46-3.5-.07-7-.02-10.63-.02Z"/><path d="M25.01,74.33h13.24v2.34h-16.16v-25.22h16.19v2.32h-13.25v8.63h12.7v2.48h-12.71v9.46Z"/><path d="M76.72,62.37h12.74v2.47h-12.71v9.46h13.29v2.34h-16.18v-25.21h16.18v2.36h-13.32v8.58Z"/><path d="M278.42,27h-11.53c.53-3.08,1.05-6.1,1.61-9.11.04-.2.46-.47.7-.47,1.98,0,3.98-.08,5.94.13,2.55.27,4.04,2.11,3.9,4.67-.09,1.56-.39,3.11-.61,4.79Z"/></svg>